# xmcd
#
# Track frame offsets:
#	150
#	14557
#	48937
#	70372
#	98492
#	115547
#	133091
#	156571
#	174880
#	188486
#	200786
#	220769
#	246952
#	262462
#	284664
#	302746
#	317070
#	343830
#
# Disc length: 4846 seconds
#
# Revision: 0
# Processed by: cddbd v1.5.2PL0 Copyright (c) Steve Scherf et al.
# Submitted via: audiograbber 1.83.01
#
DISCID=1612ec12
DTITLE=Tab Benoit and Jimmy Thackery (1-5) Tab Benoit (6-18) - Whiskey Store 1-5 
DTITLE=/ Brother to the Blues 6-18
DYEAR=1900
DGENRE=Blues
TTITLE0=I Ain't Broke
TTITLE1=Nice And Warm
TTITLE2=Unknown Legend
TTITLE3=Bad Luck Blues
TTITLE4=The Last Time
TTITLE5=Pack It Up
TTITLE6=Bring It On Home To Me
TTITLE7=Brother To The Blues
TTITLE8=Why Are People Like That 
TTITLE9=I'm On Your Side
TTITLE10=I Heard That Lonesome Whistle
TTITLE11=If You Love Me
TTITLE12=Comin' On Strong
TTITLE13=So High
TTITLE14=Grace's Song
TTITLE15=Moon Coming Over The Hill
TTITLE16=Somehow
TTITLE17=Can't Do One More Two Step
EXTD=
EXTT0=
EXTT1=
EXTT2=
EXTT3=
EXTT4=
EXTT5=
EXTT6=
EXTT7=
EXTT8=
EXTT9=
EXTT10=
EXTT11=
EXTT12=
EXTT13=
EXTT14=
EXTT15=
EXTT16=
EXTT17=
PLAYORDER=
